HIERARCHY
ROOT Hips
{
	OFFSET -3.958830 18.904000 13.208200
	CHANNELS 6 Xposition Yposition Zposition Zrotation Yrotation Xrotation 
	JOINT LHipJoint
	{
		OFFSET 0.000000 0.000000 0.000000
		CHANNELS 3 Zrotation Yrotation Xrotation
		JOINT LeftUpLeg
		{
			OFFSET 1.800000 -1.400000 0.085000
			CHANNELS 3 Zrotation Yrotation Xrotation
			JOINT LeftLeg
			{
				OFFSET 2.215000 -6.000000 0.000000
				CHANNELS 3 Zrotation Yrotation Xrotation
				JOINT LeftFoot
				{
					OFFSET 2.500000 -6.900000 0.000000
					CHANNELS 3 Zrotation Yrotation Xrotation
					JOINT LeftToeBase
					{
						OFFSET 0.200000 -0.500000 1.950000
						CHANNELS 3 Zrotation Yrotation Xrotation
						End Site
						{
							OFFSET 0.000000 0.000000 0.000000
						}
					}
				}
			}
		}
	}
	JOINT RHipJoint
	{
		OFFSET 0.000000 0.000000 0.000000
		CHANNELS 3 Zrotation Yrotation Xrotation
		JOINT RightUpLeg
		{
			OFFSET -1.800000 -1.400000 0.085000
			CHANNELS 3 Zrotation Yrotation Xrotation
			JOINT RightLeg
			{
				OFFSET -2.215000 -6.000000 0.000000
				CHANNELS 3 Zrotation Yrotation Xrotation
				JOINT RightFoot
				{
					OFFSET -2.500000 -6.900000 0.000000
					CHANNELS 3 Zrotation Yrotation Xrotation
					JOINT RightToeBase
					{
						OFFSET -0.200000 -0.500000 1.950000
						CHANNELS 3 Zrotation Yrotation Xrotation
						End Site
						{
							OFFSET 0.000000 0.000000 0.000000
						}
					}
				}
			}
		}
	}
	JOINT LowerBack
	{
		OFFSET 0.000000 0.000000 0.000000
		CHANNELS 3 Zrotation Yrotation Xrotation
		JOINT Spine
		{
			OFFSET -0.087000 1.940000 -0.288900
			CHANNELS 3 Zrotation Yrotation Xrotation
			JOINT Spine1
			{
				OFFSET 0.000000 1.950000 0.060000
				CHANNELS 3 Zrotation Yrotation Xrotation
				JOINT Neck
				{
					OFFSET 0.000000 0.000000 0.000000
					CHANNELS 3 Zrotation Yrotation Xrotation
					JOINT Neck1
					{
						OFFSET 0.000000 1.600000 0.340000
						CHANNELS 3 Zrotation Yrotation Xrotation
						JOINT Head
						{
							OFFSET 0.000000 1.667000 -0.240000
							CHANNELS 3 Zrotation Yrotation Xrotation
							End Site
							{
								OFFSET 0.000000 0.000000 0.000000
							}
						}
					}
				}
				JOINT LeftShoulder
				{
					OFFSET 0.000000 0.000000 0.000000
					CHANNELS 3 Zrotation Yrotation Xrotation
					JOINT LeftArm
					{
						OFFSET 2.700000 1.550000 -0.730000
						CHANNELS 3 Zrotation Yrotation Xrotation
						JOINT LeftForeArm
						{
							OFFSET 5.450000 0.000000 0.000000
							CHANNELS 3 Zrotation Yrotation Xrotation
							JOINT LeftHand
							{
								OFFSET 3.450000 0.000000 0.000000
								CHANNELS 3 Zrotation Yrotation Xrotation
								JOINT LeftHandIndex1
								{
									OFFSET 0.750000 0.000000 0.000000
									CHANNELS 3 Zrotation Yrotation Xrotation
									End Site
									{
										OFFSET 0.000000 0.000000 0.000000
									}
								}
							}
						}
					}
				}
				JOINT RightShoulder
				{
					OFFSET 0.000000 0.000000 0.000000
					CHANNELS 3 Zrotation Yrotation Xrotation
					JOINT RightArm
					{
						OFFSET -2.700000 1.550000 -0.730000
						CHANNELS 3 Zrotation Yrotation Xrotation
						JOINT RightForeArm
						{
							OFFSET -5.450000 0.000000 0.000000
							CHANNELS 3 Zrotation Yrotation Xrotation
							JOINT RightHand
							{
								OFFSET -3.450000 0.000000 0.000000
								CHANNELS 3 Zrotation Yrotation Xrotation
								JOINT RightHandIndex1
								{
									OFFSET -0.750000 0.000000 0.000000
									CHANNELS 3 Zrotation Yrotation Xrotation
									End Site
									{
										OFFSET 0.000000 0.000000 0.000000
									}
								}
							}
						}
					}
				}
			}
		}
	}
}
MOTION
Frames: 6
Frame Time: 0.016667
-1.580560 17.678510 -1.758620 -3.021027 -2.164111 -5.089884 -14.960781 13.333066 2.832187 19.176659 -0.295828 -5.764269 -8.022907 6.000097 6.240094 -0.499370 5.311492 3.035947 0.599800 0.182620 0.277500 18.474231 -10.686874 2.393066 -7.730488 -0.907657 -5.245477 10.089037 -6.463328 11.828799 -0.438919 -4.223266 3.306794 0.200170 0.486860 0.154940 -4.136151 -2.571562 -7.135052 12.138832 -6.721908 11.719743 -16.626848 -1.370852 18.737190 2.030608 -6.131613 -12.527379 -16.755739 -0.382924 36.060808 3.807970 -8.804580 -12.230010 14.437177 -25.898966 3.457109 24.873230 -41.925978 -11.598311 73.659454 -34.624818 -25.304936 -4.107605 2.504476 0.595350 0.192210 -0.190210 0.380450 -19.334670 27.511781 6.602158 -34.430601 13.106632 -8.173582 -18.131321 -6.115329 -0.714325 2.456342 -1.223266 -0.283230 0.500110 -0.037790 -0.186300 
-1.616700 17.674610 -1.763460 -3.102078 -2.042941 -5.086256 -14.954024 13.333207 2.838726 19.533572 -0.333640 -6.144493 -8.205072 6.108382 6.620329 -0.497210 5.371799 3.019208 0.591880 0.159530 0.282260 18.483937 -10.671926 2.384568 -7.439440 -0.900483 -5.297285 10.065003 -6.507597 12.080694 -0.442804 -4.222194 3.305697 0.185740 0.503810 0.169400 -4.160654 -2.607589 -7.128409 12.473014 -7.030993 11.767121 -17.054961 -1.626397 18.810532 2.106119 -6.157270 -12.657719 -16.938672 -0.429868 36.047387 3.548680 -8.881290 -11.891070 14.840628 -26.481719 3.396972 24.735857 -42.797659 -12.047487 71.950398 -33.901526 -24.294768 -4.145677 2.516823 0.598120 0.201580 -0.190690 0.384290 -19.925504 27.929334 6.538696 -34.290006 13.203750 -8.007047 -17.299280 -6.358974 -0.688459 2.465873 -1.188773 -0.285960 0.505060 -0.032930 -0.185010 
-1.654520 17.659220 -1.764800 -3.116132 -2.253146 -4.956806 -14.975414 13.363019 2.864096 19.829150 -0.342580 -6.458719 -8.364787 6.208904 6.878330 -0.534051 5.430545 2.980198 0.580340 0.136970 0.278800 18.463070 -10.633179 2.364790 -7.263973 -0.803183 -5.639759 10.176701 -6.603416 12.649002 -0.419673 -4.223698 3.300392 0.189490 0.502410 0.157950 -4.097649 -2.719687 -7.131764 12.338110 -6.975476 11.658089 -16.775431 -1.605406 18.785303 2.115099 -6.090830 -12.628157 -17.060972 -0.206254 36.383849 3.481230 -8.782700 -11.573670 14.956375 -26.429102 3.339291 24.122981 -44.042380 -12.057420 71.389400 -33.260879 -23.925063 -4.162734 2.512056 0.609280 0.206780 -0.211540 0.364240 -20.074981 27.806614 6.447758 -34.482851 13.391731 -7.722901 -16.555224 -5.701977 -0.725462 2.417979 -1.177303 -0.309070 0.503830 -0.012510 -0.206280 
-1.692740 17.642610 -1.764360 -3.101556 -2.352643 -4.825429 -15.000546 13.413326 2.875943 20.090001 -0.332448 -6.844408 -8.326889 6.293195 7.241540 -0.525224 5.444234 2.966675 0.563340 0.130730 0.268060 18.436644 -10.598666 2.357049 -6.971403 -0.754291 -5.830018 10.019569 -6.583539 12.890424 -0.400276 -4.196572 3.317245 0.182760 0.508060 0.154180 -4.021043 -2.846409 -7.139805 12.031240 -6.926579 11.438720 -16.439110 -1.613694 18.831814 2.158998 -5.802646 -12.693160 -16.757253 -0.206002 36.901267 2.829220 -8.575920 -10.770870 15.035793 -26.306865 3.298745 23.288190 -44.599602 -11.760032 71.408853 -33.189024 -24.000200 -4.180012 2.505450 0.587330 0.221820 -0.219690 0.358770 -20.250399 27.590786 6.520177 -33.458253 13.637157 -7.398633 -17.318959 -4.947706 -0.760106 2.413527 -1.214482 -0.305360 0.500880 -0.007670 -0.201620 
-1.729020 17.621950 -1.762570 -3.079544 -2.629842 -4.871345 -15.002419 13.426999 2.874395 20.412243 -0.311180 -6.840738 -8.242860 6.348300 7.443789 -0.464053 5.461334 2.977959 0.582850 0.159230 0.269750 18.433555 -10.602817 2.343514 -6.868119 -0.724127 -5.997012 10.083504 -6.691903 13.463659 -0.415281 -4.233844 3.313496 0.178070 0.524160 0.181640 -4.010638 -2.850872 -7.133553 12.067880 -6.896942 11.297074 -16.279837 -1.607969 18.969618 2.137936 -5.711765 -12.720039 -16.706171 -0.136423 37.211209 2.367380 -8.455230 -9.712130 14.672036 -26.142323 3.431601 22.400923 -44.447949 -11.303638 72.521402 -33.424714 -24.638835 -4.178153 2.524939 0.550340 0.239970 -0.209690 0.393990 -19.845152 27.412038 6.656048 -32.588138 13.821362 -7.380755 -19.057621 -3.960204 -0.880528 2.416530 -1.317762 -0.267670 0.485570 -0.038740 -0.171660 
-1.765750 17.588230 -1.770670 -3.024339 -2.772555 -5.142323 -15.003604 13.446958 2.862671 20.700176 -0.282499 -6.889330 -8.276731 6.502695 8.092578 -0.444853 5.526262 2.948632 0.576370 0.162990 0.235970 18.427929 -10.619151 2.330047 -6.954143 -0.680868 -6.175293 10.434059 -6.953503 14.384774 -0.409172 -4.345089 3.272575 0.182780 0.551600 0.201840 -3.998333 -2.842674 -7.129967 11.820905 -6.918737 11.631645 -15.805655 -1.657737 19.145278 1.851105 -5.671053 -12.539581 -16.467655 -0.010806 36.957739 2.502050 -8.438350 -8.633510 14.200870 -25.854318 3.440262 22.515209 -43.670285 -11.090005 73.479213 -34.050987 -25.335121 -4.196827 2.554376 0.510370 0.270420 -0.231850 0.403230 -18.802185 27.027970 6.882122 -32.420678 13.555737 -7.583570 -20.959026 -2.645845 -1.078448 2.380350 -1.424840 -0.252020 0.464430 -0.030520 -0.151600 
